<?xml version="1.0" encoding="UTF-8" standalone="no"?>
<!-- Created with Inkscape (http://www.inkscape.org/) -->

<svg
   width="210mm"
   height="100mm"
   viewBox="0 0 210 100"
   version="1.1"
   id="svg5"
   inkscape:version="1.1.1 (3bf5ae0, 2021-09-20)"
   sodipodi:docname="logo.svg"
   xmlns:inkscape="http://www.inkscape.org/namespaces/inkscape"
   xmlns:sodipodi="http://sodipodi.sourceforge.net/DTD/sodipodi-0.dtd"
   xmlns="http://www.w3.org/2000/svg"
   xmlns:svg="http://www.w3.org/2000/svg">
  <sodipodi:namedview
     id="namedview7"
     pagecolor="#ffffff"
     bordercolor="#666666"
     borderopacity="1.0"
     inkscape:pageshadow="2"
     inkscape:pageopacity="0.0"
     inkscape:pagecheckerboard="0"
     inkscape:document-units="mm"
     showgrid="false"
     inkscape:zoom="0.16"
     inkscape:cx="484.375"
     inkscape:cy="459.375"
     inkscape:window-width="1366"
     inkscape:window-height="703"
     inkscape:window-x="0"
     inkscape:window-y="0"
     inkscape:window-maximized="1"
     inkscape:current-layer="layer1" />
  <defs
     id="defs2" />
  <g
     inkscape:label="Camada 1"
     inkscape:groupmode="layer"
     id="layer1">
    <g
       id="g1045"
       transform="rotate(-90,50,50)">
      <path
         id="path10605"
         style="fill:#f2f2f2;stroke-width:0.981299;stroke-linecap:round;stroke-linejoin:round;paint-order:stroke fill markers"
         d="M 0.57140875,0 H 99.428591 C 99.745152,0 100,0.2548483 100,0.57140875 V 209.42859 C 100,209.74515 99.745152,210 99.428591,210 H 0.57140875 C 0.2548483,210 0,209.74515 0,209.42859 V 0.57140875 C 0,0.2548483 0.2548483,0 0.57140875,0 Z" />
      <g
         id="g8135"
         transform="matrix(0.9263245,0,0,0.9263245,10.834103,0.60596041)">
        <path
           id="path8977"
           style="fill:#ffff00;stroke-width:0.215724;stroke-linecap:round;stroke-linejoin:round;paint-order:stroke fill markers"
           transform="rotate(-40.666474)"
           d="m -33.702646,51.235497 h 49.146301 c 0.15016,0 0.271048,0.120887 0.271048,0.271047 v 9.33688 c 0,0.15016 -0.120888,0.271047 -0.271048,0.271047 h -49.146301 c -0.150161,0 -0.271048,-0.120887 -0.271048,-0.271047 v -9.33688 c 0,-0.15016 0.120887,-0.271047 0.271048,-0.271047 z" />
        <path
           id="path9237"
           style="fill:#000080;stroke-width:0.345594;stroke-linecap:round;stroke-linejoin:round;paint-order:stroke fill markers"
           d="M 76.832705,34.358494 A 26.133764,26.133764 0 0 1 50.69894,60.492258 26.133764,26.133764 0 0 1 24.565176,34.358494 26.133764,26.133764 0 0 1 50.69894,8.2247295 26.133764,26.133764 0 0 1 76.832705,34.358494 Z" />
        <path
           id="circle8176"
           style="fill:#00ffff;stroke-width:0.294256;stroke-linecap:round;stroke-linejoin:round;paint-order:stroke fill markers"
           d="M 73.391325,33.530941 A 22.251505,22.251505 0 0 1 51.13982,55.782446 22.251505,22.251505 0 0 1 28.888315,33.530941 22.251505,22.251505 0 0 1 51.13982,11.279436 22.251505,22.251505 0 0 1 73.391325,33.530941 Z" />
      </g>
      <g
         aria-label="SHC Disp"
         transform="rotate(90)"
         id="text2786"
         style="font-size:28.9198px;line-height:1.25;stroke-width:0.722995">
        <path
           d="m 80.613988,-41.772316 c 0,0 6.998591,0 6.998591,0 0,0 0,0 0,0 3.383617,0 5.089885,-1.706268 5.089885,-5.089885 0,0 0,-1.793027 0,-1.793027 0,0 0,0 0,0 0,-2.747381 -1.214632,-4.36689 -3.614975,-4.858527 0,0 -5.350163,-1.041112 -5.350163,-1.041112 0,0 0,0 0,0 -0.231358,-0.05784 -0.347038,-0.202439 -0.347038,-0.462717 0,0 0,-1.850867 0,-1.850867 0,0 0,0 0,0 0,-0.202439 0.11568,-0.318118 0.318118,-0.318118 0,0 8.415662,0 8.415662,0 0,0 0,-2.805221 0,-2.805221 0,0 -2.255745,-1.735188 -2.255745,-1.735188 0,0 -6.420195,0 -6.420195,0 0,0 0,0 0,0 -3.383617,0 -5.089885,1.706268 -5.089885,5.089885 0,0 0,1.648429 0,1.648429 0,0 0,0 0,0 0,2.74738 1.214632,4.366889 3.614975,4.829606 0,0 5.350163,1.098952 5.350163,1.098952 0,0 0,0 0,0 0.231359,0.02892 0.347038,0.202439 0.347038,0.462717 0,0 0,1.966547 0,1.966547 0,0 0,0 0,0 0,0.202438 -0.115679,0.318117 -0.318118,0.318117 0,0 -8.994058,0 -8.994058,0 0,0 0,2.805221 0,2.805221 0,0 2.255745,1.735188 2.255745,1.735188 z"
           style="font-family:BitGamer;-inkscape-font-specification:BitGamer"
           id="path10726" />
        <path
           d="m 101.37838,-41.772316 c 0,0 0,-7.895105 0,-7.895105 0,0 6.01532,0 6.01532,0 0,0 0,7.895105 0,7.895105 0,0 5.03204,0 5.03204,0 0,0 0,-19.954662 0,-19.954662 0,0 -5.03204,0 -5.03204,0 0,0 0,7.519148 0,7.519148 0,0 -6.01532,0 -6.01532,0 0,0 0,-7.519148 0,-7.519148 0,0 -5.032048,0 -5.032048,0 0,0 0,19.954662 0,19.954662 0,0 5.032048,0 5.032048,0 z"
           style="font-family:BitGamer;-inkscape-font-specification:BitGamer"
           id="path10723" />
        <path
           d="m 116.64803,-46.862201 c 0,3.383617 1.70626,5.089885 5.08988,5.089885 0,0 7.49023,0 7.49023,0 0,0 2.25574,-1.735188 2.25574,-1.735188 0,0 0,-2.805221 0,-2.805221 0,0 -9.48569,0 -9.48569,0 0,0 0,0 0,0 -0.20244,0 -0.31812,-0.115679 -0.31812,-0.318117 0,0 0,-10.237609 0,-10.237609 0,0 0,0 0,0 0,-0.202439 0.11568,-0.318118 0.31812,-0.318118 0,0 9.48569,0 9.48569,0 0,0 0,-2.805221 0,-2.805221 0,0 -2.25574,-1.735188 -2.25574,-1.735188 0,0 -7.49023,0 -7.49023,0 0,0 0,0 0,0 -3.38362,0 -5.08988,1.706268 -5.08988,5.089885 0,0 0,9.774892 0,9.774892 0,0 0,0 0,0 z"
           style="font-family:BitGamer;-inkscape-font-specification:BitGamer"
           id="path10720" />
        <path
           d="m 149.58764,-41.772316 c 0,0 0,0 0,0 5.75504,0 8.6181,-2.86306 8.6181,-8.6181 0,0 0,-2.718462 0,-2.718462 0,0 0,0 0,0 0,-5.75504 -2.86306,-8.6181 -8.6181,-8.6181 0,0 -7.46131,0 -7.46131,0 0,0 0,19.954662 0,19.954662 0,0 7.46131,0 7.46131,0 z m -2.42927,-15.414253 c 0,0 2.71846,0 2.71846,0 0,0 0,0 0,0 2.19791,0 3.29686,1.098952 3.29686,3.325777 0,0 0,4.22229 0,4.22229 0,0 0,0 0,0 0,2.226825 -1.09895,3.325777 -3.29686,3.325777 0,0 -2.71846,0 -2.71846,0 0,0 0,-10.873844 0,-10.873844 z"
           style="font-family:BitGamer;-inkscape-font-specification:BitGamer"
           id="path10717" />
        <path
           d="m 166.73706,-59.529073 c 0,0 0,-4.482569 0,-4.482569 0,0 -4.94529,0 -4.94529,0 0,0 0,4.482569 0,4.482569 0,0 4.94529,0 4.94529,0 z m -0.0578,17.756757 c 0,0 0,-15.385333 0,-15.385333 0,0 -4.82961,0 -4.82961,0 0,0 0,15.385333 0,15.385333 0,0 4.82961,0 4.82961,0 z"
           style="font-family:BitGamer;-inkscape-font-specification:BitGamer"
           id="path10714" />
        <path
           d="m 172.14505,-41.772316 c 0,0 5.00312,0 5.00312,0 0,0 0,0 0,0 3.23902,0 4.85853,-1.619509 4.85853,-4.887446 0,0 0,0 0,0 0,-2.458183 -1.24355,-3.875253 -3.70173,-4.280131 0,0 -2.94982,-0.491636 -2.94982,-0.491636 0,0 0,0 0,0 -0.31812,-0.02892 -0.46272,-0.347038 -0.46272,-0.896514 0,0 0,0 0,0 0,-0.433797 0.1446,-0.636236 0.46272,-0.636236 0,0 5.95747,0 5.95747,0 0,0 0,-2.689541 0,-2.689541 0,0 -2.02438,-1.503829 -2.02438,-1.503829 0,0 -4.30905,0 -4.30905,0 0,0 0,0 0,0 -3.23902,0 -4.85853,1.619508 -4.85853,4.887446 0,0 0,0 0,0 0,2.516022 1.24355,3.990932 3.73066,4.424729 0,0 2.94982,0.491637 2.94982,0.491637 0,0 0,0 0,0 0.28919,0.05784 0.43379,0.318117 0.43379,0.751914 0,0 0,0 0,0 0,0.433797 -0.1446,0.636236 -0.46271,0.636236 0,0 -6.65156,0 -6.65156,0 0,0 0,2.689541 0,2.689541 0,0 2.02439,1.50383 2.02439,1.50383 z"
           style="font-family:BitGamer;-inkscape-font-specification:BitGamer"
           id="path10711" />
        <path
           d="m 190.24882,-35.988356 c 0,0 0,-5.78396 0,-5.78396 0,0 3.78849,0 3.78849,0 0,0 0,0 0,0 3.23902,0 4.85853,-1.619509 4.85853,-4.858526 0,0 0,-5.668281 0,-5.668281 0,0 0,0 0,0 0,-3.239018 -1.61951,-4.858526 -4.85853,-4.858526 0,0 -8.6181,0 -8.6181,0 0,0 0,21.169293 0,21.169293 0,0 4.82961,0 4.82961,0 z m 0,-16.975923 c 0,0 3.44146,0 3.44146,0 0,0 0,0 0,0 0.26027,0 0.37595,0.11568 0.37595,0.375958 0,0 0,6.246677 0,6.246677 0,0 0,0 0,0 0,0.260278 -0.11568,0.375957 -0.37595,0.375957 0,0 -3.44146,0 -3.44146,0 0,0 0,-6.998592 0,-6.998592 z"
           style="font-family:BitGamer;-inkscape-font-specification:BitGamer"
           id="path10708" />
      </g>
    </g>
  </g>
</svg>
